HIERARCHY
ROOT Hips
{
	OFFSET 0.000000 88.474243 0.000000
	CHANNELS 6 Xposition Yposition Zposition Zrotation Yrotation Xrotation 
	JOINT Hips_Spine
	{
		OFFSET 0.000000 0.000000 0.000000
		CHANNELS 3 Zrotation Yrotation Xrotation
		JOINT Spine
		{
			OFFSET 0.005100 8.711998 -0.691000
			CHANNELS 3 Zrotation Yrotation Xrotation
			JOINT Spine1
			{
				OFFSET -0.009200 8.660301 -1.275000
				CHANNELS 3 Zrotation Yrotation Xrotation
				JOINT Spine2
				{
					OFFSET 0.006300 9.852501 -1.857000
					CHANNELS 3 Zrotation Yrotation Xrotation
					JOINT Spine2_Neck
					{
						OFFSET 0.000000 0.000000 0.000000
						CHANNELS 3 Zrotation Yrotation Xrotation
						JOINT Neck
						{
							OFFSET 0.016300 11.420799 -0.263300
							CHANNELS 3 Zrotation Yrotation Xrotation
							End Site #name: Head
							{
								OFFSET -0.019200 9.262405 2.362500
							}
						}
					}
					JOINT Spine2_LeftShoulder
					{
						OFFSET 0.000000 0.000000 0.000000
						CHANNELS 3 Zrotation Yrotation Xrotation
						JOINT LeftShoulder
						{
							OFFSET 5.616900 6.732201 -0.345700
							CHANNELS 3 Zrotation Yrotation Xrotation
							JOINT LeftArm
							{
								OFFSET 10.664888 -0.183372 -2.440700
								CHANNELS 3 Zrotation Yrotation Xrotation
								JOINT LeftForeArm
								{
									OFFSET 27.459126 0.000000 0.000000
									CHANNELS 3 Zrotation Yrotation Xrotation
									End Site #name: LeftHand
									{
										OFFSET 21.306858 0.000000 0.000000
									}
								}
							}
						}
					}
					JOINT Spine2_RightShoulder
					{
						OFFSET 0.000000 0.000000 0.000000
						CHANNELS 3 Zrotation Yrotation Xrotation
						JOINT RightShoulder
						{
							OFFSET -5.580300 6.737503 -0.344400
							CHANNELS 3 Zrotation Yrotation Xrotation
							JOINT RightArm
							{
								OFFSET -10.679335 -0.188484 -2.383900
								CHANNELS 3 Zrotation Yrotation Xrotation
								JOINT RightForeArm
								{
									OFFSET -27.503529 0.000000 0.000000
									CHANNELS 3 Zrotation Yrotation Xrotation
									End Site #name: RightHand
									{
										OFFSET -21.306808 0.000000 0.000000
									}
								}
							}
						}
					}
				}
			}
		}
	}
	JOINT Hips_LeftUpLeg
	{
		OFFSET 0.000000 0.000000 0.000000
		CHANNELS 3 Zrotation Yrotation Xrotation
		JOINT LeftUpLeg
		{
			OFFSET 6.857700 -6.739601 0.312100
			CHANNELS 3 Zrotation Yrotation Xrotation
			JOINT LeftLeg
			{
				OFFSET -0.367590 -34.731552 -4.572400
				CHANNELS 3 Zrotation Yrotation Xrotation
				End Site #name: LeftFoot
				{
					OFFSET 0.367590 -34.656704 -6.067400
				}
			}
		}
	}
	JOINT Hips_RightUpLeg
	{
		OFFSET 0.000000 0.000000 0.000000
		CHANNELS 3 Zrotation Yrotation Xrotation
		JOINT RightUpLeg
		{
			OFFSET -6.876100 -6.733299 0.301000
			CHANNELS 3 Zrotation Yrotation Xrotation
			JOINT RightLeg
			{
				OFFSET 0.347353 -34.795158 -4.515900
				CHANNELS 3 Zrotation Yrotation Xrotation
				End Site #name: RightFoot
				{
					OFFSET -0.347353 -34.589367 -6.070300
				}
			}
		}
	}
}
MOTION
Frames: 18
Frame Time: 0.041667
0.180174 0.045828 -0.024162 1.631632 15.617978 -6.135087 -0.000000 0.000000 0.000000 0.021353 -1.916217 -0.385328 0.423944 -1.569161 -1.873451 0.000000 0.000000 0.000000 0.140949 -0.943630 -2.008347 4.069181 0.744765 -4.983746 0.553799 -1.731320 -2.744811 -15.758902 -5.386213 2.122601 -47.022124 -1.057306 7.975375 -0.570386 -34.584170 6.190467 0.531887 -1.325823 -1.135000 12.633586 10.868915 4.625129 57.558488 -7.608916 -6.612693 -0.827322 54.057150 0.490252 0.000000 0.000000 0.000000 -10.840216 20.293237 -4.953866 -1.776457 -2.814000 23.295588 0.000000 0.000000 0.000000 -5.528954 18.285195 -9.706386 8.362126 3.375689 -1.585337 
0.750455 -0.031939 0.102348 3.728669 15.001216 -6.603277 -0.000000 0.000000 0.000000 -2.095261 -2.264199 -0.812803 0.666550 -1.747612 -2.181494 0.000000 0.000000 0.000000 0.246338 -0.880853 -3.294151 4.581794 -1.373481 -2.829859 -0.013761 -1.710821 -4.114653 -20.753088 -2.774056 0.958278 -44.932648 -0.127324 -4.681090 -0.999185 -28.525252 4.100767 0.173047 -1.684432 -1.293431 12.603078 8.205041 1.834028 60.799970 -2.449707 -8.362314 -0.988336 56.328416 -1.096503 0.000000 0.000000 -0.000000 -14.173175 17.715411 -1.742624 -0.794467 0.965807 20.808363 0.000000 0.000000 0.000000 -9.786892 21.654924 -10.571194 9.072845 3.801910 0.137108 
1.062861 -0.063987 0.099319 5.335895 12.303883 -6.831584 -0.000000 0.000000 -0.000000 -3.602670 -3.323123 -0.505228 0.618101 -1.609303 -2.381317 0.000000 0.000000 0.000000 0.624397 -1.356318 -3.276907 3.760232 -2.647431 -2.898828 -0.414097 -1.737902 -3.845822 -23.898252 -2.136405 2.596586 -45.482418 5.434161 -8.893238 -1.389696 -28.478372 4.059540 0.201411 -1.735292 -1.318241 11.556030 7.235526 2.011355 60.080090 -0.318933 -6.154077 -0.415214 50.334981 -0.780623 0.000000 0.000000 -0.000000 -16.133990 17.472765 0.547109 -1.129987 1.552625 18.669320 0.000000 0.000000 0.000000 -12.514127 23.355158 -14.417149 8.904835 2.493003 7.383621 
1.326058 -0.085505 0.053099 6.136994 10.214479 -6.904758 -0.000000 0.000000 -0.000000 -5.290588 -3.049159 0.587092 0.552468 -1.557519 -2.402642 0.000000 0.000000 0.000000 0.751120 -1.534395 -3.301800 3.619945 -4.143826 -2.347062 -0.448761 -1.794236 -3.737822 -25.175240 -1.893970 4.100707 -44.330752 7.023781 -8.504847 -0.984068 -27.062465 6.528910 0.253785 -1.792405 -1.323620 10.088912 7.292588 1.875837 59.556450 1.955262 -4.729976 -0.204561 50.307951 -0.649979 0.000000 0.000000 -0.000000 -17.135650 17.956766 1.239366 -1.663615 1.992507 17.857000 0.000000 0.000000 0.000000 -14.542642 23.069044 -18.192085 8.707702 2.138288 15.609457 
1.633467 -0.089685 -0.007099 6.469685 9.530595 -6.684807 -0.000000 0.000000 -0.000000 -6.313474 -2.543767 0.784851 0.412048 -1.519297 -2.442145 0.000000 0.000000 0.000000 0.450520 -1.657113 -3.493733 3.575975 -4.998269 -2.213346 -0.518004 -1.915687 -3.838129 -26.727747 -1.546632 5.199404 -41.581153 7.486855 -8.615299 -0.388668 -23.485938 8.682252 0.188531 -1.839509 -1.401175 8.237165 7.460827 1.700828 60.203271 3.008050 -4.448571 -0.130754 52.062189 -0.767777 0.000000 0.000000 -0.000000 -17.683693 18.494108 1.486090 -2.040488 2.267845 17.404770 0.000000 0.000000 0.000000 -15.972478 22.157175 -20.498464 8.497737 2.178758 21.325775 
1.972887 -0.081076 -0.071189 6.543951 9.205474 -6.540587 -0.000000 0.000000 -0.000000 -6.515438 -2.071955 0.185100 0.186707 -1.516132 -2.567935 0.000000 0.000000 0.000000 0.049862 -1.729706 -3.747045 3.361948 -5.398014 -2.166568 -0.736568 -2.002838 -4.052356 -28.513069 -0.987787 5.837592 -39.449836 7.526834 -8.191373 0.071095 -19.238983 10.106948 0.013406 -1.896815 -1.567028 6.509856 7.559413 1.524347 61.730516 2.738249 -5.380345 0.033082 52.320021 -0.779177 0.000000 0.000000 -0.000000 -18.039012 18.900375 1.422000 -2.000064 2.565625 17.140324 0.000000 0.000000 0.000000 -16.862747 21.077673 -21.380893 8.254254 2.456864 24.547913 
2.325317 -0.062974 -0.133820 6.420677 9.404026 -6.451635 -0.000000 0.000000 -0.000000 -6.247313 -1.679930 -0.562137 -0.083157 -1.447668 -2.774569 0.000000 0.000000 0.000000 -0.296528 -1.735861 -3.923204 3.098321 -5.649110 -2.073725 -1.028977 -1.991307 -4.304799 -30.452639 -0.102602 6.055500 -37.744029 7.782316 -7.621275 0.466726 -14.608605 10.739152 -0.303088 -1.882790 -1.746317 5.468503 7.568558 1.414623 63.497748 2.063530 -7.138358 0.250609 51.549923 -0.731390 0.000000 0.000000 -0.000000 -18.261592 19.147005 1.081179 -1.794636 2.809691 17.115610 0.000000 0.000000 0.000000 -17.415370 19.899190 -21.358117 7.798515 2.417482 25.988252 
2.667178 -0.036024 -0.187228 6.167011 10.163155 -6.337183 -0.000000 0.000000 -0.000000 -6.101736 -1.317637 -1.281457 -0.309148 -1.330288 -2.960075 0.000000 0.000000 0.000000 -0.562169 -1.699169 -4.058414 2.883810 -5.642932 -1.906815 -1.293418 -1.929865 -4.511049 -31.899587 0.677866 6.001775 -36.574355 8.011389 -7.380315 0.766015 -11.499923 10.555002 -0.608433 -1.796400 -1.861651 4.873803 7.556556 1.396369 65.996971 1.861382 -8.351688 0.458410 50.172085 -0.698400 0.000000 0.000000 -0.000000 -18.296424 19.281844 0.587292 -1.606875 3.012283 17.214672 0.000000 0.000000 0.000000 -17.610965 18.455893 -20.834088 7.143317 2.172292 26.331349 
2.972664 0.001413 -0.226113 5.792300 11.456040 -6.216131 -0.000000 0.000000 -0.000000 -6.303258 -0.969790 -1.590394 -0.461605 -1.200279 -3.100829 0.000000 0.000000 0.000000 -0.735588 -1.633794 -4.165526 2.838015 -5.303154 -1.717302 -1.478241 -1.850029 -4.691292 -32.626266 1.153258 5.931924 -36.054843 8.008512 -7.295371 0.833213 -10.339313 10.100221 -0.899688 -1.665254 -1.928682 4.555559 7.424783 1.399915 68.086085 1.411983 -8.698599 0.622386 48.181114 -0.619783 0.000000 0.000000 -0.000000 -18.168869 19.232289 0.092344 -1.374319 3.220890 17.264489 0.000000 0.000000 0.000000 -17.514076 16.800372 -20.009497 6.456174 1.876631 25.940227 
3.237196 0.050086 -0.252821 5.333744 12.900518 -6.089841 -0.000000 0.000000 -0.000000 -6.783496 -0.715810 -1.593726 -0.577948 -1.077712 -3.262461 0.000000 0.000000 0.000000 -0.880288 -1.564171 -4.260959 2.910804 -4.789246 -1.581409 -1.607784 -1.762695 -4.844593 -32.773005 1.443222 5.897799 -36.205102 8.135134 -7.438826 0.766563 -10.289426 9.708387 -1.126207 -1.535289 -1.991111 4.186872 7.239698 1.380154 69.714535 1.512432 -8.185654 0.759124 46.258308 -0.562541 0.000000 0.000000 -0.000000 -17.855750 19.105122 -0.380706 -1.136444 3.422361 17.280533 0.000000 0.000000 0.000000 -17.179043 14.927146 -18.998404 5.871219 1.621839 24.898465 
3.457668 0.109960 -0.267698 4.814257 14.256702 -5.954136 -0.000000 0.000000 -0.000000 -7.326003 -0.481576 -1.431735 -0.678620 -0.971465 -3.422493 0.000000 0.000000 0.000000 -1.037091 -1.486585 -4.337924 3.054909 -4.156138 -1.586142 -1.721101 -1.674019 -4.999129 -32.479823 1.569083 5.872538 -36.652624 8.175744 -7.740968 0.673445 -10.980923 9.427779 -1.336306 -1.413530 -2.041239 3.932623 7.070676 1.354268 70.713236 1.965143 -7.425944 0.845581 44.660048 -0.518163 0.000000 0.000000 -0.000000 -17.460050 18.922116 -0.874396 -0.893353 3.684076 17.321626 0.000000 0.000000 0.000000 -16.785558 12.866313 -17.846014 5.303375 1.335062 23.313241 
3.631329 0.178650 -0.271415 4.311985 15.462967 -5.821124 -0.000000 0.000000 -0.000000 -7.857448 -0.308163 -1.151031 -0.797110 -0.868749 -3.596170 0.000000 0.000000 0.000000 -1.210615 -1.413628 -4.422780 3.204858 -3.514665 -1.695017 -1.840026 -1.586844 -5.146100 -31.886872 1.616338 5.854768 -37.312094 8.082424 -7.920876 0.612768 -11.805696 9.250604 -1.558014 -1.289344 -2.082360 3.836199 6.890395 1.324300 71.030416 2.262855 -6.983532 0.877533 43.756875 -0.499729 0.000000 0.000000 -0.000000 -17.048432 18.740764 -1.293256 -0.765047 3.916028 17.288803 0.000000 0.000000 0.000000 -16.365537 10.755217 -16.698836 4.826193 1.120349 21.422445 
3.752978 0.252132 -0.267011 3.902666 16.291254 -5.667841 -0.000000 0.000000 -0.000000 -8.250812 -0.159709 -0.888710 -0.904144 -0.766971 -3.756960 0.000000 0.000000 0.000000 -1.389937 -1.340270 -4.494154 3.354557 -2.914613 -1.859968 -1.959042 -1.482368 -5.267721 -31.214755 1.643777 5.861258 -38.054184 7.634561 -7.721742 0.577158 -12.451553 9.140728 -1.772496 -1.150501 -2.115969 3.898623 6.730541 1.279166 70.757920 2.382166 -6.796671 0.873052 43.401168 -0.504455 0.000000 0.000000 -0.000000 -16.610540 18.616051 -1.607573 -0.792057 4.161012 17.169999 0.000000 0.000000 0.000000 -15.927988 8.861806 -15.655990 4.366948 0.812232 19.575575 
3.826087 0.323967 -0.262247 3.597223 16.680235 -5.529791 -0.000000 0.000000 -0.000000 -8.511350 -0.038764 -0.583351 -0.962206 -0.698218 -3.920408 0.000000 0.000000 0.000000 -1.527009 -1.281556 -4.568827 3.509354 -2.487597 -2.028381 -2.054580 -1.399766 -5.383301 -30.561844 1.646690 5.898789 -38.682983 7.096213 -7.243643 0.552904 -12.897242 9.032993 -1.939918 -1.036388 -2.154652 4.073668 6.593884 1.235439 70.132223 2.354164 -7.008456 0.843512 43.431800 -0.519037 0.000000 0.000000 -0.000000 -16.199637 18.642987 -1.759921 -0.858926 4.460405 16.918843 0.000000 0.000000 0.000000 -15.539490 7.366019 -14.723633 3.925383 0.306567 17.666203 
3.852722 0.390331 -0.260413 3.400495 16.684621 -5.399185 -0.000000 0.000000 -0.000000 -8.664197 0.036527 -0.384057 -0.971243 -0.663614 -4.101779 0.000000 0.000000 0.000000 -1.591670 -1.246726 -4.656872 3.677173 -2.211173 -2.184278 -2.102387 -1.352220 -5.504407 -29.942057 1.610237 5.973110 -39.183183 6.633514 -6.570967 0.532733 -13.125929 8.927779 -2.025785 -0.964236 -2.210454 4.278090 6.469202 1.193548 69.399388 2.182329 -7.439219 0.803105 43.733336 -0.536794 0.000000 0.000000 -0.000000 -15.838262 18.795554 -1.830074 -1.009530 4.648376 16.677910 0.000000 0.000000 0.000000 -15.218776 6.274246 -13.976987 3.558372 -0.284766 15.904828 
3.834352 0.448326 -0.265373 3.281423 16.469733 -5.295001 -0.000000 0.000000 -0.000000 -8.751760 0.064033 -0.269661 -0.930499 -0.673613 -4.319060 0.000000 0.000000 0.000000 -1.563398 -1.241283 -4.763550 3.863617 -2.041680 -2.346797 -2.084417 -1.363441 -5.641365 -29.330749 1.516145 6.097720 -39.609678 6.258813 -5.803861 0.509489 -13.204118 8.811027 -2.006602 -0.952250 -2.286886 4.424496 6.340470 1.158429 68.756343 1.880027 -7.852362 0.760580 44.151011 -0.547669 0.000000 0.000000 -0.000000 -15.537994 19.078011 -1.812118 -1.155389 4.713455 16.378143 0.000000 0.000000 0.000000 -14.956954 5.533553 -13.485529 3.294306 -0.857270 14.531039 
3.772626 0.495411 -0.280280 3.233400 16.099017 -5.210153 -0.000000 0.000000 -0.000000 -8.786584 0.044370 -0.175164 -0.846213 -0.729657 -4.543228 0.000000 0.000000 0.000000 -1.438203 -1.265505 -4.879567 4.043378 -1.964678 -2.572094 -1.999070 -1.408120 -5.796573 -28.698543 1.367586 6.269288 -40.001386 5.981002 -5.042820 0.483681 -13.206835 8.701235 -1.880648 -1.008140 -2.385764 4.475064 6.187682 1.132161 68.288874 1.453678 -8.137416 0.720782 44.566457 -0.550459 0.000000 0.000000 -0.000000 -15.267578 19.504166 -1.742989 -1.311414 4.720541 16.092503 0.000000 0.000000 0.000000 -14.730429 5.090761 -13.262579 3.150360 -1.290664 13.610882 
3.674346 0.533555 -0.303551 3.229653 15.610843 -5.150500 -0.000000 0.000000 -0.000000 -8.768254 -0.013068 -0.100263 -0.721669 -0.819270 -4.747747 0.000000 0.000000 0.000000 -1.250090 -1.309060 -5.015070 4.204470 -1.912876 -2.959930 -1.854871 -1.479424 -5.968790 -28.045185 1.199516 6.469409 -40.380652 5.760282 -4.385156 0.447386 -13.273353 8.594426 -1.675368 -1.111697 -2.493724 4.418642 6.033264 1.115305 67.957204 1.004915 -8.458444 0.682923 44.913002 -0.556420 0.000000 0.000000 -0.000000 -15.024270 20.008738 -1.676235 -1.468704 4.649532 15.908247 0.000000 0.000000 0.000000 -14.527873 4.910837 -13.312063 3.114266 -1.531585 13.173922 
